<svg xmlns="http://www.w3.org/2000/svg" viewBox="0 0 648.42 648.42"><title>Asset 103</title><g id="Layer_2" data-name="Layer 2"><g id="Layer_1-2" data-name="Layer 1"><rect width="648.42" height="648.42" transform="translate(648.42 648.42) rotate(180)" fill="#cbe6c6"/><path d="M18.79,63.67C31.73,56,44,48.77,60.42,50.69c10.4,1.22,15.21,5.23,20.78,9.88,4.81,4,10.26,8.55,20.17,12,14.25,5,29.13,4.84,46.83-.52,16.11-4.88,33.2-13.54,53-23.57,5.71-2.89,11.61-5.88,17.76-8.92C248,25.29,278.34,12,309.72,0h-6.28C273.93,11.49,245.32,24.05,218,37.56c-6.17,3-12.07,6-17.79,8.93-39.53,20-68.09,34.5-98,24-9.53-3.35-14.81-7.76-19.47-11.64-5.6-4.68-10.89-9.1-22-10.39A47.87,47.87,0,0,0,55,48.11c-14.4,0-25.61,6.63-37.4,13.61A168.2,168.2,0,0,1,0,71.21V73.7A164.4,164.4,0,0,0,18.79,63.67Z" fill="#38a3a6"/><path d="M514.29,120.37a58,58,0,0,0-4.75,5.43S511.4,123.43,514.29,120.37Z" fill="#8379b0" opacity="0.41"/><path d="M521.8,69.13l-1.89.49S518.9,70.14,521.8,69.13Z" fill="#8379b0" opacity="0.41"/><path d="M577.05,111c-.52,8.46-1.4,16.71-1.4,16.71S577.34,121.81,577.05,111Z" fill="#8379b0" opacity="0.41"/><path d="M546.78,20.4a17.47,17.47,0,0,0-5.5,3.21A21.74,21.74,0,0,1,546.78,20.4Z" fill="#8379b0" opacity="0.41"/><path d="M527.45,34.06c6.18-1.78,14.18,0,20.06.58s22.09-.89,21.83,7.91-19.25,5.83-26.12,4.68c-3.14-.52-19.49-5.8-37.32,8.88s-20.28,53.83-20.28,53.83,10.06-14.15,17-17.7C510.3,88.29,514,88.15,523.9,85s22.39-3.29,21.62,1.84-17.29,8.58-25.31,11.93-18.73,10.8-28,22.87-1.55,30.85,1,41.45c2.49,10.17-.06,29.36,2.79,31.74,2.18,1.19,14.52-6.66,25.05-8.24s21.44-3.37,25.77-9.56,4.58-4.35,7.11-24.28,5.09-22.39,7.36-22.45,1.44,8.87,1.68,15.81-5.56,25.55-5.56,25.55,20.13-8.33,25.22-14.54,8-20.84,9.8-33.91.9-28.91,4.93-32.7,6.39,9.82,6.89,19-2.19,29.92-2.19,29.92,12.61-12.81,17.13-18.9c4.16-5.6,15.69-19.84,29.15-52V6.17c-1.14-1.08-2.26-2-3.29-2.91-8-6.85-26.25,11.86-26.25,11.86s6.73-1.51,11.17.47c9.28,4.14,14.5,16.61,14.5,16.61S637.4,20.4,632,18.36s-13.2-2.2-15.87.41c-1,1-1.67,1.62-2,2,0,.47-.15,3.54,3.32,8.54,3.78,5.44,11,4.64,16.11,10.37,2.32,2.6,3.64,25.39,3.64,25.39s-1.11-15.93-4.16-22.26-12.7-6.41-18.54-11.26c-4.35-3.61-4.33-5.34-4-6-1.6,2.19-11.08,15.23-12.19,18.14-1.21,3.18,4.39,12.15,5.71,17.55,1.17,4.8,3.27,23.6,3.72,27.68l.09.78s0-.28-.09-.78a207.43,207.43,0,0,0-3.9-21.81c-3.11-13.61-8-19.23-8-19.23L573.44,79.69s2,8.31,3.53,14.67c.69,2.85.5,9.82.08,16.66.29,10.79-1.4,16.71-1.4,16.71s.88-8.25,1.4-16.71c-.07-2.42-.23-5.07-.54-8-1.67-15.81-5.82-19.17-5.82-19.17L542,127.07s.54,10.23-1.46,18.1a159.55,159.55,0,0,1-5.84,17.31s4.37-14,5.15-18.81a27.31,27.31,0,0,0-.74-11.76l-28.46,40.48L551.41,107s-9.52.84-20.61,3c-6.39,1.23-12.49,6.31-16.51,10.39-2.89,3.06-4.75,5.43-4.75,5.43a58,58,0,0,1,4.75-5.43c3.47-3.66,8.41-8.33,13.46-11.18C537,104,555.5,102.4,555.5,102.4l25-39S562.66,59.11,546.4,63c-10.33,2.48-20.5,5.07-24.6,6.13-2.9,1-1.89.49-1.89.49l1.89-.49c2.28-.8,7-2.54,16.47-6.24,21.8-8.49,45.6-4.43,45.6-4.43L601,33.16s-6.53-7.48-28.56-13.09c-12.39-3.16-20.73-1.61-25.63.33a21.74,21.74,0,0,0-5.5,3.21,17.47,17.47,0,0,1,5.5-3.21c4.57-2,12.15-4.13,23.37-3.82,15,.41,31,13.67,34.4,10.85,2.88-2.37,8.54-12.17,8.54-12.17S605.84,7.05,600,0h-62.8A366.84,366.84,0,0,0,511.1,41S521.27,35.85,527.45,34.06Z" fill="#91cd90"/><path d="M174.54,605.72s-27.83-9.83-33.88-11.54-15.15-4.47-19-6.71-37.14-24.12-37.14-24.12l4.33-1.83s17.35,6.18,25.23,10.35c15.82,8.39,20.94,13.18,26.52,16.54,15.76,9.48,34.77,17.3,34.77,17.3" fill="#64c296"/><path d="M72.57,469.26s-6.43,32.12-7.41,39.06-2.63,17.38-4.38,21.94S44.4,576.05,44.4,576.05l-7.18,2.36s4.67-32.2,7.85-41.44c6.4-18.56,11.79-21.37,14.44-28,7.48-18.61,13-40.66,13-40.66" fill="#64c296"/><path d="M6.42,544.5c2-5,3.86-16.6,5-24.29S19.83,477,19.83,477l-.12-1S13.49,500.37,5,521c-1.22,3-2.94,5.23-5,8.26V561.9C3.07,553.5,5.7,546.33,6.42,544.5Z" fill="#64c296"/><path d="M8.62,648.42h20C24.6,642.15,15.72,631.79,5,621c-1.38-1.38-3.12-3.14-5-5.08V636.8A131.42,131.42,0,0,0,8.62,648.42Z" fill="#64c296"/><path d="M42.78,609.49C35.63,602.29,18.59,585,18.59,585l-4.53,2.52S29,607.9,37.66,619.18c12,15.58,27.9,25.1,35.23,29.24H85.51c-3.37-3.07-7.65-7.14-13-12.51C68,631.42,55.05,621.84,42.78,609.49Z" fill="#64c296"/><path d="M143.86,636.85s-29.5-13.18-35.85-15.58-15.93-8.49-19.88-11.19S46.6,576.31,46.6,576.31l2.75-2S78,589.67,86,594.77C102.26,605,104.64,607,110.32,611c16,11.36,43.47,30,43.47,30" fill="#64c296"/><path d="M158.79,571.1c-4-1.27-7.92-1.22-10.45-2.68s-34.82-18.67-34.82-18.67l1.69-1.14s18.79,7.17,24.23,9.3c11.88,4.66,11.88,4.66,15.71,6.45,11.23,5.23,32.08,14.72,32.55,15" fill="#64c296"/><path d="M180.16,585.41s-25-7-30.46-8.26-13.62-3.2-17.09-4.81S99.24,555,99.24,555l3.9-1.33s15.6,4.43,22.68,7.42c14.22,6,18.82,9.48,23.83,11.89a303.38,303.38,0,0,0,31.26,12.43" fill="#64c296"/><path d="M100.26,463.09s-14.81,33.66-17,40.76c-2.09,6.67-2.64,17.38-4.39,21.94s-17.5,43.52-17.5,43.52l-5.74,2.53s4.36-30.1,7.54-39.34c6.4-18.56,11.79-21.38,14.44-28,7.47-18.6,13.52-25.94,13.52-25.94" fill="#64c296"/><path d="M25.78,521.58c-1,6.95-2.63,17.38-4.38,21.94S5,589.31,5,589.31L.39,590.83s2.12-31.36,5.31-40.6c6.39-18.56,7.74-22,10.39-28.63,7.48-18.6,12.4-45.76,12.4-45.76" fill="#64c296"/><path d="M54.53,475.45s-15.4,20-16.57,35.08c-.54,7-.63,25.93-1.14,30.81-1.49,14.28-10.47,40.89-10.47,40.89l-4.27.19s-2-28.47,2.78-37c8.34-14.92,6.14-23.09,7.58-34.3,2.58-20,22-36.63,22-36.63" fill="#64c296"/><path d="M3.09,648.42c-.91-1.56-1.95-3.24-3.09-5v5Z" fill="#64c296"/><path d="M13,618.59c3.62,5.1,19.13,21.18,26.39,29.57l.23.26h6C39.86,637,34.61,627,32,623,25.68,613.41,7.11,599.79,0,594.77v5.16C4.48,606.42,10.75,615.46,13,618.59Z" fill="#64c296"/><path d="M67.26,606.57c-7.22-6.69-33.14-27.06-33.14-27.06l-2.86,2.38s32.84,40.17,36.34,43.7,12.09,11.5,18,14.77c2.19,1.22,7.36,4.47,13,8.06h10.6c-6.86-6.94-14.39-14.62-20.22-20.68C83.85,622.5,81.77,620,67.26,606.57Z" fill="#64c296"/><path d="M148.32,616.84s-24.6-10.5-29.9-12.42-13.29-6.75-16.58-8.89-34.7-26.77-34.7-26.77l2.28-1.58S93.31,579.41,100,583.46c13.54,8.15,15.52,9.67,20.26,12.86,13.4,9,36.29,23.84,36.29,23.84" fill="#64c296"/><path d="M107,477.05s-5.94,27.12-6.91,32.91-4.16,14.8-5.61,18.53S77.4,564.58,77.4,564.58l-3.53,1.63S81.43,539.6,84.1,532c5.35-15.25,6.42-17.52,8.6-22.91C98.84,493.88,108.82,468,108.82,468" fill="#64c296"/><path d="M119,473.6s-5.1,26-5.94,31.62-3.59,14.22-4.85,17.8-14.88,34.62-14.88,34.62l-3.1,1.54s6.54-25.55,8.85-32.83c4.64-14.64,5.58-16.82,7.47-22,5.34-14.61,14-39.49,14-39.49" fill="#64c296"/><path d="M124.84,473.14s-2.09,23.85-2.29,28.91-1.91,13.12-2.73,16.47-10.49,32.76-10.49,32.76l-2.8,1.78s3.51-23.59,4.94-30.37c2.86-13.63,3.52-15.7,4.78-20.55,3.53-13.7,9.14-37,9.14-37" fill="#64c296"/><path d="M150.68,485s-4.4,17.74-5.13,21.52a72.51,72.51,0,0,1-4.14,12.14c-1.06,2.44-12.52,23.64-12.52,23.64l-2.57,1.07S131.9,526,133.86,521c3.94-10,4.73-11.48,6.33-15,4.51-10,11.84-26.94,11.84-26.94" fill="#64c296"/><path d="M147.24,467.54S136,490.08,134.42,499.79s-1.74,16.95-3.6,22.76-9.36,22.72-9.36,22.72l-4.08.58a128.78,128.78,0,0,1,3.84-23.19c3.42-13.64,8.85-18.9,9.9-23.69s6.35-17.36,8-19.76S147.24,467.54,147.24,467.54Z" fill="#64c296"/><path d="M163.73,559.74c-3.52-.94-6.9-1-9.11-2s-30.43-13.6-30.43-13.6l1.46-.79s16.4,5.28,21.14,6.85c10.36,3.43,10.36,3.43,13.71,4.74,9.81,3.82,28,10.76,28.43,11" fill="#64c296"/><path d="M174.23,552.06c-3.61-.57-5.27,1.16-15.11-1.49C150.43,548.22,133,540,133,540l1.35-1.09s16.94,3.66,21.84,4.76c10.72,2.42,10.72,2.42,14.22,3.43,10.21,2.94,29.16,8.22,29.6,8.39" fill="#64c296"/><path d="M155.86,490.43s-2.26,19.7-5.73,29.72c-2.27,6.53-8.65,15.13-8.65,15.13l-1.77,1s2.64-13.43,5.59-20.3S155.86,490.43,155.86,490.43Z" fill="#64c296"/><path d="M193,537.58s-18.41-1.72-31.36.3c-6.79,1.07-20.17-2.6-20.17-2.6l1-1.36s13.1-1.76,20.59-1.65S193,537.58,193,537.58Z" fill="#64c296"/><path d="M183.18,491.14s-10.94,16.37-14.32,21.25-11.52,13.53-11.52,13.53a74.15,74.15,0,0,1,12.44-4.41c7-1.79,14.94-2.16,18-1.62s5.09,1.08,5.09,1.08-9.33-.18-13.42,2.43-9.53,5.81-13.1,6.56-18.38,1-18.38,1l-2.66,1.44,2.69-2.58s5-12.71,11-18.85S183.18,491.14,183.18,491.14Z" fill="#64c296"/><path d="M9.4,590.59C112.6,558.46,147.93,531,147.93,531S100.27,557.91,0,589.6v3.91Z" fill="#64c296"/><path d="M514,449.35c-14.7,18.44-3.78,32.08-18.65,54.87-21.19,32.47-54.88,22.45-69.86,52.34-11.78,23.52,4.81,38.29-6.93,55.48-20.19,29.56-80.72,2.66-93.72,22.43-2.23,3.41-3.05,8.17-2.56,13.95h326.1V448.13c-19.77-13.11-40-21.28-58.44-22.79C585.16,425,536.67,421,514,449.35Z" fill="#64c296"/></g></g></svg>